<?xml version="1.0" encoding="utf-8"?>
<!-- Generator: Adobe Illustrator 26.1.0, SVG Export Plug-In . SVG Version: 6.00 Build 0)  -->
<svg version="1.1" id="Calque_1" xmlns="http://www.w3.org/2000/svg" xmlns:xlink="http://www.w3.org/1999/xlink" x="0px" y="0px"
	 viewBox="0 0 595.28 841.89" style="enable-background:new 0 0 595.28 841.89;" xml:space="preserve">
<style type="text/css">
	.st0{fill:url(#XMLID_00000022545574146938694350000000224146130446495909_);}
	.st1{fill:#FFFFFF;}
	.st2{fill:url(#XMLID_00000129200386347675348260000016726951676779459250_);}
	.st3{fill:url(#XMLID_00000175290195419902521540000004636522183703969941_);}
	.st4{fill:none;stroke:#FFFFFF;stroke-width:0.8121;stroke-miterlimit:10;}
	.st5{font-family:'Barlow-Bold';}
	.st6{font-size:36.2269px;}
</style>
<g>
</g>
<g>
	<g id="XMLID_129_">
		<g id="XMLID_15_">
			
				<linearGradient id="XMLID_00000159437573954427717200000006496649261981895093_" gradientUnits="userSpaceOnUse" x1="284.8388" y1="415.8642" x2="297.0528" y2="316.8092">
				<stop  offset="0.0282" style="stop-color:#CC93C1"/>
				<stop  offset="0.185" style="stop-color:#C58CBD"/>
				<stop  offset="0.4545" style="stop-color:#B07BB4"/>
				<stop  offset="0.8018" style="stop-color:#8D61A5"/>
				<stop  offset="1" style="stop-color:#76529D"/>
			</linearGradient>
			<path id="XMLID_112_" style="fill:url(#XMLID_00000159437573954427717200000006496649261981895093_);" d="M337.8,374.02
				c0-3.91-9.2-8.22-9.52-13.04c-0.33-4.81,1.93-15.78-3.26-24.11c7.2,2.86,8.94,11.16,8.94,11.16s6.17-32.66-34.67-36.53l0,0
				c-53.53-10.5-58.81,38.4-51.85,61.31c6.96,22.92,3.32,26.73-5.28,46.28c-9.83,22.34,0.84,29.64,0.84,29.64h29.42h43.95
				c-11.5-7.63-20.67-30.9-10.04-42.41c3.69-4.21,17.35,0.53,21.39-3.34c2.97-2.85,1.97-7.52,1.97-9.59c0-2.08,0.7-1.36,1.8-2.77
				c1.1-1.41,0.61-3.24,0.61-3.24s1.52-0.67,1.89-2.83c0.4-2.33-1.64-2.48-1.56-4.81C332.51,377.42,337.8,376.51,337.8,374.02z"/>
			<path id="XMLID_49_" class="st1" d="M289.13,358.14c0,0-3.67-2.03-3.12-1.12c0.97,1.58,2.28,4.39,2.22,7.99
				c-0.1,5.67-0.8,10.34,1.69,12.03c2.49,1.69,4.97,2.64,4.08,4.47c-0.9,1.84-3.12,2.79-2.33,4.72c0.8,1.94,1.28,3.74-1.45,5.14
				c0,0,2.11,0.59,1.68,2.29c-0.33,1.28-1.91,1.51-1.75,3.6c0.09,1.19,0.53,3.47-0.6,5.39c-1.13,1.92-7.98,2.72-11.56,1.62
				c-3.58-1.09-6.16,10.99,1.09,21.26c7.25,10.26,8.36,24.38,8.36,24.38h-61.46c0,0,4.2-19.44,17.21-34.65
				c4.52-5.28,1.06-14.5-2.63-17c-7.98-5.41-15.64-22.43-10.01-35.13c5.63-12.7,12.93-18.1,24.26-18.7
				c11.34-0.6,17.34-2.23,18.54-7.67c0.1,5.8-2.06,7.66-3.55,8.16c0,0,3.9-3.7,9.71-2.15c0,0-2.49,3.28-2.29,4.87
				C277.22,347.64,287.43,347.34,289.13,358.14z"/>
			<g id="XMLID_142_">
				
					<linearGradient id="XMLID_00000116950154725837120380000011604450649030244999_" gradientUnits="userSpaceOnUse" x1="171.9435" y1="327.0999" x2="171.9435" y2="271.0255" gradientTransform="matrix(0.7871 0.6169 -0.6169 0.7871 283.3689 61.5319)">
					<stop  offset="0" style="stop-color:#57BFCA"/>
					<stop  offset="0.1028" style="stop-color:#55BCC9"/>
					<stop  offset="0.242" style="stop-color:#4FB2C7"/>
					<stop  offset="0.402" style="stop-color:#47A1C2"/>
					<stop  offset="0.5777" style="stop-color:#3F8AB8"/>
					<stop  offset="0.7659" style="stop-color:#3B6AA9"/>
					<stop  offset="0.9621" style="stop-color:#3B4494"/>
					<stop  offset="1" style="stop-color:#3B3C90"/>
				</linearGradient>
				<path id="XMLID_141_" style="fill:url(#XMLID_00000116950154725837120380000011604450649030244999_);" d="M217.98,425.55
					l-1.78-1.4c-1.39-1.09-1.64-3.1-0.55-4.5l25.46-32.49c1.09-1.39,3.1-1.64,4.5-0.55l1.78,1.4c1.39,1.09,1.64,3.1,0.55,4.5
					L222.47,425C221.38,426.4,219.37,426.64,217.98,425.55z"/>
				
					<linearGradient id="XMLID_00000135682936702057528130000006040496028581020545_" gradientUnits="userSpaceOnUse" x1="183.1403" y1="239.4868" x2="151.7848" y2="299.8375" gradientTransform="matrix(0.7871 0.6169 -0.6169 0.7871 283.3689 61.5319)">
					<stop  offset="0" style="stop-color:#57BFCA"/>
					<stop  offset="0.1028" style="stop-color:#55BCC9"/>
					<stop  offset="0.242" style="stop-color:#4FB2C7"/>
					<stop  offset="0.402" style="stop-color:#47A1C2"/>
					<stop  offset="0.5777" style="stop-color:#3F8AB8"/>
					<stop  offset="0.7659" style="stop-color:#3B6AA9"/>
					<stop  offset="0.9621" style="stop-color:#3B4494"/>
					<stop  offset="1" style="stop-color:#3B3C90"/>
				</linearGradient>
				<path id="XMLID_60_" style="fill:url(#XMLID_00000135682936702057528130000006040496028581020545_);" d="M276.08,387.5
					c-7.97,10.17-22.68,11.95-32.85,3.98c-10.17-7.97-11.95-22.68-3.98-32.85c7.97-10.17,22.68-11.95,32.85-3.98
					C282.27,362.62,284.06,377.33,276.08,387.5z"/>
				<path id="XMLID_140_" class="st4" d="M274.44,386.21c-7.26,9.26-20.65,10.89-29.92,3.63c-9.26-7.26-10.89-20.65-3.63-29.92
					c7.26-9.26,20.65-10.89,29.92-3.63C280.08,363.56,281.7,376.95,274.44,386.21z"/>
				<g id="XMLID_139_">
					<text transform="matrix(0.9917 -0.1288 0.1288 0.9917 250.3894 387.6093)" class="st1 st5 st6">?</text>
				</g>
			</g>
		</g>
	</g>
</g>
</svg>
